<svg width="40" height="40" viewBox="0 0 40 40" fill="none" xmlns="http://www.w3.org/2000/svg">
<g clip-path="url(#clip0_80096_5212)">
<rect width="40" height="40" rx="20" fill="#4F378B"/>
</g>
<path d="M16 20.5789C16.5523 20.5789 17 20.1077 17 19.5263C17 18.945 16.5523 18.4737 16 18.4737C15.4477 18.4737 15 18.945 15 19.5263C15 20.1077 15.4477 20.5789 16 20.5789Z" fill="#BFB7D5"/>
<path d="M21 19.5263C21 20.1077 20.5523 20.5789 20 20.5789C19.4477 20.5789 19 20.1077 19 19.5263C19 18.945 19.4477 18.4737 20 18.4737C20.5523 18.4737 21 18.945 21 19.5263Z" fill="#BFB7D5"/>
<path d="M24 20.5789C24.5523 20.5789 25 20.1077 25 19.5263C25 18.945 24.5523 18.4737 24 18.4737C23.4477 18.4737 23 18.945 23 19.5263C23 20.1077 23.4477 20.5789 24 20.5789Z" fill="#BFB7D5"/>
<path d="M17 23.7368C17 24.3182 16.5523 24.7895 16 24.7895C15.4477 24.7895 15 24.3182 15 23.7368C15 23.1555 15.4477 22.6842 16 22.6842C16.5523 22.6842 17 23.1555 17 23.7368Z" fill="#BFB7D5"/>
<path d="M20 24.7895C20.5523 24.7895 21 24.3182 21 23.7368C21 23.1555 20.5523 22.6842 20 22.6842C19.4477 22.6842 19 23.1555 19 23.7368C19 24.3182 19.4477 24.7895 20 24.7895Z" fill="#BFB7D5"/>
<path fill-rule="evenodd" clip-rule="evenodd" d="M16 10.0526C16 9.47128 15.5523 9 15 9C14.4477 9 14 9.47128 14 10.0526H12C10.8954 10.0526 10 10.9952 10 12.1579V26.8947C10 28.0574 10.8954 29 12 29H28C29.1046 29 30 28.0574 30 26.8947V12.1579C30 10.9952 29.1046 10.0526 28 10.0526H26C26 9.47128 25.5523 9 25 9C24.4477 9 24 9.47128 24 10.0526H16ZM12 14.2632V12.1579H28V14.2632H12ZM12 16.3684V26.8947H22.1716L28 20.7596V16.3684H12ZM28 23.7369L25 26.8947H28V23.7369Z" fill="#BFB7D5"/>
<defs>
<clipPath id="clip0_80096_5212">
<rect width="40" height="40" fill="white"/>
</clipPath>
</defs>
</svg>
