<svg width="40" height="41" viewBox="0 0 40 41" fill="none" xmlns="http://www.w3.org/2000/svg">
<rect y="0.499939" width="40" height="40" rx="20" fill="#4F378B"/>
<path fill-rule="evenodd" clip-rule="evenodd" d="M23.682 22.0992C25.6662 20.9444 27 18.7946 27 16.3333C27 12.6514 24.0152 9.66667 20.3333 9.66667C16.6514 9.66667 13.6667 12.6514 13.6667 16.3333C13.6667 18.7946 15.0005 20.9444 16.9847 22.0992C14.9438 22.6522 13.3825 23.66 12.25 24.6729C11.4129 25.4216 10.8116 26.1706 10.4164 26.7378C10.2184 27.022 10.0705 27.2629 9.96938 27.4383C9.91877 27.5261 9.87972 27.5978 9.85181 27.6507C9.83784 27.6771 9.82665 27.6988 9.81818 27.7156L9.8075 27.7369L9.80367 27.7446L9.80213 27.7478L9.80146 27.7491C9.80146 27.7491 9.80084 27.7504 11 28.3333L9.80084 27.7504C9.4789 28.4127 9.7548 29.2105 10.4171 29.5325C11.0776 29.8536 11.8729 29.58 12.1965 28.9216L12.1973 28.9201L12.2097 28.8962C12.2231 28.8709 12.2463 28.828 12.2797 28.77C12.3467 28.6538 12.4541 28.478 12.6044 28.2622C12.906 27.8294 13.3741 27.2451 14.0278 26.6605C15.3223 25.5026 17.3503 24.3333 20.3333 24.3333C23.3163 24.3333 25.3444 25.5026 26.6389 26.6605C27.2925 27.2451 27.7607 27.8294 28.0623 28.2622C28.2126 28.478 28.3199 28.6538 28.3869 28.77C28.4204 28.828 28.4436 28.8709 28.457 28.8962L28.4694 28.9201L28.4701 28.9216C28.7938 29.58 29.5891 29.8536 30.2496 29.5325C30.9119 29.2105 31.1878 28.4127 30.8658 27.7504L29.6667 28.3333C30.8658 27.7504 30.8652 27.7491 30.8652 27.7491L30.863 27.7446L30.8592 27.7369L30.8485 27.7156C30.84 27.6988 30.8288 27.6771 30.8149 27.6507C30.7869 27.5978 30.7479 27.5261 30.6973 27.4383C30.5962 27.2629 30.4483 27.022 30.2502 26.7378C29.8551 26.1706 29.2538 25.4216 28.4167 24.6729C27.2842 23.66 25.7229 22.6522 23.682 22.0992ZM20.3333 20.3333C22.5425 20.3333 24.3333 18.5425 24.3333 16.3333C24.3333 14.1242 22.5425 12.3333 20.3333 12.3333C18.1242 12.3333 16.3333 14.1242 16.3333 16.3333C16.3333 18.5425 18.1242 20.3333 20.3333 20.3333Z" fill="#BFB7D5"/>
</svg>
